#N canvas 604 49 853 760 12;
#X obj 301 267 *~;
#X obj 381 199 vline~;
#X obj 301 419 dac~;
#X obj 409 124 r Trigger;
#X msg 381 175 1 10 \, 0 200 10;
#X obj 302 131 phasor~ 220;
#X obj 373 320 adc~;
#X obj 301 375 *~;
#X obj 336 375 *~;
#X obj 381 223 pow~ 2;
#X obj 301 291 lop~ 200;
#X connect 0 0 10 0;
#X connect 1 0 9 0;
#X connect 3 0 4 0;
#X connect 4 0 1 0;
#X connect 5 0 0 0;
#X connect 6 0 7 1;
#X connect 6 1 8 1;
#X connect 7 0 2 0;
#X connect 8 0 2 1;
#X connect 9 0 0 1;
#X connect 10 0 7 0;
#X connect 10 0 8 0;
