#N canvas 815 63 853 786 12;
#X obj 301 267 *~;
#X obj 381 199 vline~;
#X obj 301 291 *~ 0.15;
#X obj 301 389 dac~;
#X obj 409 124 r Trigger;
#X msg 381 175 1 10 \, 0 200 10;
#X obj 302 131 phasor~ 220;
#X obj 373 290 adc~;
#X obj 301 345 *~;
#X obj 336 345 *~;
#X obj 381 223 pow~ 2;
#X connect 0 0 2 0;
#X connect 1 0 10 0;
#X connect 2 0 8 0;
#X connect 2 0 9 0;
#X connect 4 0 5 0;
#X connect 5 0 1 0;
#X connect 6 0 0 0;
#X connect 7 0 8 1;
#X connect 7 1 9 1;
#X connect 8 0 3 0;
#X connect 9 0 3 1;
#X connect 10 0 0 1;
